<svg width="867" height="122" viewBox="0 0 867 122" fill="none" xmlns="http://www.w3.org/2000/svg">
<mask id="path-1-outside-1_27_91" maskUnits="userSpaceOnUse" x="156" y="41" width="685" height="54" fill="black">
<rect fill="white" x="156" y="41" width="685" height="54"/>
<path d="M157.298 93V43.5455H167.754V63.9503H188.98V43.5455H199.412V93H188.98V72.571H167.754V93H157.298ZM253.479 68.2727C253.479 73.6657 252.456 78.2538 250.412 82.0369C248.384 85.8201 245.615 88.7098 242.105 90.706C238.612 92.6861 234.684 93.6761 230.321 93.6761C225.926 93.6761 221.982 92.678 218.489 90.6818C214.995 88.6856 212.234 85.7959 210.206 82.0128C208.178 78.2296 207.163 73.6496 207.163 68.2727C207.163 62.8797 208.178 58.2917 210.206 54.5085C212.234 50.7254 214.995 47.8437 218.489 45.8636C221.982 43.8674 225.926 42.8693 230.321 42.8693C234.684 42.8693 238.612 43.8674 242.105 45.8636C245.615 47.8437 248.384 50.7254 250.412 54.5085C252.456 58.2917 253.479 62.8797 253.479 68.2727ZM242.878 68.2727C242.878 64.7794 242.355 61.8333 241.308 59.4347C240.278 57.036 238.821 55.2169 236.938 53.9773C235.054 52.7377 232.848 52.1179 230.321 52.1179C227.794 52.1179 225.588 52.7377 223.705 53.9773C221.821 55.2169 220.356 57.036 219.31 59.4347C218.279 61.8333 217.764 64.7794 217.764 68.2727C217.764 71.7661 218.279 74.7121 219.31 77.1108C220.356 79.5095 221.821 81.3286 223.705 82.5682C225.588 83.8078 227.794 84.4276 230.321 84.4276C232.848 84.4276 235.054 83.8078 236.938 82.5682C238.821 81.3286 240.278 79.5095 241.308 77.1108C242.355 74.7121 242.878 71.7661 242.878 68.2727ZM261.224 43.5455H274.119L287.738 76.7727H288.318L301.937 43.5455H314.832V93H304.69V60.8111H304.279L291.481 92.7585H284.575L271.777 60.6903H271.366V93H261.224V43.5455ZM323.447 93V43.5455H356.771V52.1662H333.903V63.9503H355.056V72.571H333.903V84.3793H356.867V93H323.447ZM407.65 57.7685C407.457 55.8205 406.628 54.3073 405.163 53.2287C403.698 52.1501 401.71 51.6108 399.198 51.6108C397.492 51.6108 396.051 51.8523 394.876 52.3352C393.701 52.8021 392.799 53.4541 392.171 54.2912C391.559 55.1283 391.254 56.0781 391.254 57.1406C391.221 58.026 391.406 58.7988 391.809 59.4588C392.228 60.1188 392.799 60.6903 393.523 61.1733C394.248 61.6402 395.085 62.0507 396.035 62.4048C396.985 62.7429 397.999 63.0327 399.077 63.2741L403.521 64.3366C405.678 64.8196 407.658 65.4635 409.461 66.2685C411.264 67.0734 412.826 68.0634 414.146 69.2386C415.466 70.4138 416.488 71.7983 417.212 73.392C417.953 74.9858 418.331 76.813 418.347 78.8736C418.331 81.9001 417.558 84.5241 416.029 86.7457C414.516 88.9512 412.326 90.6657 409.461 91.8892C406.612 93.0966 403.174 93.7003 399.15 93.7003C395.157 93.7003 391.68 93.0885 388.718 91.8651C385.772 90.6416 383.47 88.8305 381.812 86.4318C380.17 84.017 379.308 81.0308 379.228 77.473H389.346C389.459 79.1312 389.933 80.5156 390.771 81.6264C391.624 82.7211 392.759 83.5502 394.175 84.1136C395.608 84.661 397.226 84.9347 399.029 84.9347C400.8 84.9347 402.337 84.6771 403.641 84.1619C404.961 83.6468 405.984 82.9304 406.708 82.0128C407.433 81.0952 407.795 80.0407 407.795 78.8494C407.795 77.7386 407.465 76.8049 406.805 76.0483C406.161 75.2917 405.211 74.6477 403.955 74.1165C402.716 73.5852 401.194 73.1023 399.391 72.6676L394.006 71.3153C389.837 70.3011 386.545 68.7154 384.13 66.5582C381.715 64.401 380.516 61.4953 380.532 57.8409C380.516 54.8466 381.313 52.2306 382.923 49.9929C384.549 47.7552 386.778 46.0085 389.612 44.7528C392.445 43.4972 395.665 42.8693 399.271 42.8693C402.941 42.8693 406.145 43.4972 408.881 44.7528C411.634 46.0085 413.775 47.7552 415.305 49.9929C416.834 52.2306 417.623 54.8224 417.671 57.7685H407.65ZM436.512 93L422.362 43.5455H433.784L441.97 77.9077H442.38L451.412 43.5455H461.191L470.199 77.9801H470.633L478.819 43.5455H490.241L476.091 93H465.9L456.483 60.6662H456.096L446.703 93H436.512ZM495.837 93V43.5455H529.161V52.1662H506.293V63.9503H527.447V72.571H506.293V84.3793H529.258V93H495.837ZM537.474 93V43.5455H570.798V52.1662H547.93V63.9503H569.083V72.571H547.93V84.3793H570.895V93H537.474ZM577.227 52.1662V43.5455H617.844V52.1662H602.703V93H592.368V52.1662H577.227ZM640.271 93V43.5455H650.727V63.9503H671.953V43.5455H682.385V93H671.953V72.571H650.727V93H640.271ZM736.451 68.2727C736.451 73.6657 735.429 78.2538 733.385 82.0369C731.356 85.8201 728.587 88.7098 725.078 90.706C721.584 92.6861 717.656 93.6761 713.294 93.6761C708.899 93.6761 704.955 92.678 701.461 90.6818C697.968 88.6856 695.207 85.7959 693.179 82.0128C691.15 78.2296 690.136 73.6496 690.136 68.2727C690.136 62.8797 691.15 58.2917 693.179 54.5085C695.207 50.7254 697.968 47.8437 701.461 45.8636C704.955 43.8674 708.899 42.8693 713.294 42.8693C717.656 42.8693 721.584 43.8674 725.078 45.8636C728.587 47.8437 731.356 50.7254 733.385 54.5085C735.429 58.2917 736.451 62.8797 736.451 68.2727ZM725.851 68.2727C725.851 64.7794 725.327 61.8333 724.281 59.4347C723.251 57.036 721.794 55.2169 719.91 53.9773C718.027 52.7377 715.821 52.1179 713.294 52.1179C710.766 52.1179 708.561 52.7377 706.677 53.9773C704.794 55.2169 703.329 57.036 702.282 59.4347C701.252 61.8333 700.737 64.7794 700.737 68.2727C700.737 71.7661 701.252 74.7121 702.282 77.1108C703.329 79.5095 704.794 81.3286 706.677 82.5682C708.561 83.8078 710.766 84.4276 713.294 84.4276C715.821 84.4276 718.027 83.8078 719.91 82.5682C721.794 81.3286 723.251 79.5095 724.281 77.1108C725.327 74.7121 725.851 71.7661 725.851 68.2727ZM744.197 43.5455H757.092L770.711 76.7727H771.29L784.91 43.5455H797.805V93H787.663V60.8111H787.252L774.454 92.7585H767.548L754.749 60.6903H754.339V93H744.197V43.5455ZM806.419 93V43.5455H839.743V52.1662H816.875V63.9503H838.029V72.571H816.875V84.3793H839.84V93H806.419Z"/>
</mask>
<path d="M157.298 93V43.5455H167.754V63.9503H188.98V43.5455H199.412V93H188.98V72.571H167.754V93H157.298ZM253.479 68.2727C253.479 73.6657 252.456 78.2538 250.412 82.0369C248.384 85.8201 245.615 88.7098 242.105 90.706C238.612 92.6861 234.684 93.6761 230.321 93.6761C225.926 93.6761 221.982 92.678 218.489 90.6818C214.995 88.6856 212.234 85.7959 210.206 82.0128C208.178 78.2296 207.163 73.6496 207.163 68.2727C207.163 62.8797 208.178 58.2917 210.206 54.5085C212.234 50.7254 214.995 47.8437 218.489 45.8636C221.982 43.8674 225.926 42.8693 230.321 42.8693C234.684 42.8693 238.612 43.8674 242.105 45.8636C245.615 47.8437 248.384 50.7254 250.412 54.5085C252.456 58.2917 253.479 62.8797 253.479 68.2727ZM242.878 68.2727C242.878 64.7794 242.355 61.8333 241.308 59.4347C240.278 57.036 238.821 55.2169 236.938 53.9773C235.054 52.7377 232.848 52.1179 230.321 52.1179C227.794 52.1179 225.588 52.7377 223.705 53.9773C221.821 55.2169 220.356 57.036 219.31 59.4347C218.279 61.8333 217.764 64.7794 217.764 68.2727C217.764 71.7661 218.279 74.7121 219.31 77.1108C220.356 79.5095 221.821 81.3286 223.705 82.5682C225.588 83.8078 227.794 84.4276 230.321 84.4276C232.848 84.4276 235.054 83.8078 236.938 82.5682C238.821 81.3286 240.278 79.5095 241.308 77.1108C242.355 74.7121 242.878 71.7661 242.878 68.2727ZM261.224 43.5455H274.119L287.738 76.7727H288.318L301.937 43.5455H314.832V93H304.69V60.8111H304.279L291.481 92.7585H284.575L271.777 60.6903H271.366V93H261.224V43.5455ZM323.447 93V43.5455H356.771V52.1662H333.903V63.9503H355.056V72.571H333.903V84.3793H356.867V93H323.447ZM407.65 57.7685C407.457 55.8205 406.628 54.3073 405.163 53.2287C403.698 52.1501 401.71 51.6108 399.198 51.6108C397.492 51.6108 396.051 51.8523 394.876 52.3352C393.701 52.8021 392.799 53.4541 392.171 54.2912C391.559 55.1283 391.254 56.0781 391.254 57.1406C391.221 58.026 391.406 58.7988 391.809 59.4588C392.228 60.1188 392.799 60.6903 393.523 61.1733C394.248 61.6402 395.085 62.0507 396.035 62.4048C396.985 62.7429 397.999 63.0327 399.077 63.2741L403.521 64.3366C405.678 64.8196 407.658 65.4635 409.461 66.2685C411.264 67.0734 412.826 68.0634 414.146 69.2386C415.466 70.4138 416.488 71.7983 417.212 73.392C417.953 74.9858 418.331 76.813 418.347 78.8736C418.331 81.9001 417.558 84.5241 416.029 86.7457C414.516 88.9512 412.326 90.6657 409.461 91.8892C406.612 93.0966 403.174 93.7003 399.15 93.7003C395.157 93.7003 391.68 93.0885 388.718 91.8651C385.772 90.6416 383.47 88.8305 381.812 86.4318C380.17 84.017 379.308 81.0308 379.228 77.473H389.346C389.459 79.1312 389.933 80.5156 390.771 81.6264C391.624 82.7211 392.759 83.5502 394.175 84.1136C395.608 84.661 397.226 84.9347 399.029 84.9347C400.8 84.9347 402.337 84.6771 403.641 84.1619C404.961 83.6468 405.984 82.9304 406.708 82.0128C407.433 81.0952 407.795 80.0407 407.795 78.8494C407.795 77.7386 407.465 76.8049 406.805 76.0483C406.161 75.2917 405.211 74.6477 403.955 74.1165C402.716 73.5852 401.194 73.1023 399.391 72.6676L394.006 71.3153C389.837 70.3011 386.545 68.7154 384.13 66.5582C381.715 64.401 380.516 61.4953 380.532 57.8409C380.516 54.8466 381.313 52.2306 382.923 49.9929C384.549 47.7552 386.778 46.0085 389.612 44.7528C392.445 43.4972 395.665 42.8693 399.271 42.8693C402.941 42.8693 406.145 43.4972 408.881 44.7528C411.634 46.0085 413.775 47.7552 415.305 49.9929C416.834 52.2306 417.623 54.8224 417.671 57.7685H407.65ZM436.512 93L422.362 43.5455H433.784L441.97 77.9077H442.38L451.412 43.5455H461.191L470.199 77.9801H470.633L478.819 43.5455H490.241L476.091 93H465.9L456.483 60.6662H456.096L446.703 93H436.512ZM495.837 93V43.5455H529.161V52.1662H506.293V63.9503H527.447V72.571H506.293V84.3793H529.258V93H495.837ZM537.474 93V43.5455H570.798V52.1662H547.93V63.9503H569.083V72.571H547.93V84.3793H570.895V93H537.474ZM577.227 52.1662V43.5455H617.844V52.1662H602.703V93H592.368V52.1662H577.227ZM640.271 93V43.5455H650.727V63.9503H671.953V43.5455H682.385V93H671.953V72.571H650.727V93H640.271ZM736.451 68.2727C736.451 73.6657 735.429 78.2538 733.385 82.0369C731.356 85.8201 728.587 88.7098 725.078 90.706C721.584 92.6861 717.656 93.6761 713.294 93.6761C708.899 93.6761 704.955 92.678 701.461 90.6818C697.968 88.6856 695.207 85.7959 693.179 82.0128C691.15 78.2296 690.136 73.6496 690.136 68.2727C690.136 62.8797 691.15 58.2917 693.179 54.5085C695.207 50.7254 697.968 47.8437 701.461 45.8636C704.955 43.8674 708.899 42.8693 713.294 42.8693C717.656 42.8693 721.584 43.8674 725.078 45.8636C728.587 47.8437 731.356 50.7254 733.385 54.5085C735.429 58.2917 736.451 62.8797 736.451 68.2727ZM725.851 68.2727C725.851 64.7794 725.327 61.8333 724.281 59.4347C723.251 57.036 721.794 55.2169 719.91 53.9773C718.027 52.7377 715.821 52.1179 713.294 52.1179C710.766 52.1179 708.561 52.7377 706.677 53.9773C704.794 55.2169 703.329 57.036 702.282 59.4347C701.252 61.8333 700.737 64.7794 700.737 68.2727C700.737 71.7661 701.252 74.7121 702.282 77.1108C703.329 79.5095 704.794 81.3286 706.677 82.5682C708.561 83.8078 710.766 84.4276 713.294 84.4276C715.821 84.4276 718.027 83.8078 719.91 82.5682C721.794 81.3286 723.251 79.5095 724.281 77.1108C725.327 74.7121 725.851 71.7661 725.851 68.2727ZM744.197 43.5455H757.092L770.711 76.7727H771.29L784.91 43.5455H797.805V93H787.663V60.8111H787.252L774.454 92.7585H767.548L754.749 60.6903H754.339V93H744.197V43.5455ZM806.419 93V43.5455H839.743V52.1662H816.875V63.9503H838.029V72.571H816.875V84.3793H839.84V93H806.419Z" fill="black"/>
<path d="M157.298 93H156.298V94H157.298V93ZM157.298 43.5455V42.5455H156.298V43.5455H157.298ZM167.754 43.5455H168.754V42.5455H167.754V43.5455ZM167.754 63.9503H166.754V64.9503H167.754V63.9503ZM188.98 63.9503V64.9503H189.98V63.9503H188.98ZM188.98 43.5455V42.5455H187.98V43.5455H188.98ZM199.412 43.5455H200.412V42.5455H199.412V43.5455ZM199.412 93V94H200.412V93H199.412ZM188.98 93H187.98V94H188.98V93ZM188.98 72.571H189.98V71.571H188.98V72.571ZM167.754 72.571V71.571H166.754V72.571H167.754ZM167.754 93V94H168.754V93H167.754ZM158.298 93V43.5455H156.298V93H158.298ZM157.298 44.5455H167.754V42.5455H157.298V44.5455ZM166.754 43.5455V63.9503H168.754V43.5455H166.754ZM167.754 64.9503H188.98V62.9503H167.754V64.9503ZM189.98 63.9503V43.5455H187.98V63.9503H189.98ZM188.98 44.5455H199.412V42.5455H188.98V44.5455ZM198.412 43.5455V93H200.412V43.5455H198.412ZM199.412 92H188.98V94H199.412V92ZM189.98 93V72.571H187.98V93H189.98ZM188.98 71.571H167.754V73.571H188.98V71.571ZM166.754 72.571V93H168.754V72.571H166.754ZM167.754 92H157.298V94H167.754V92ZM250.412 82.0369L249.532 81.5615L249.531 81.5644L250.412 82.0369ZM242.105 90.706L242.598 91.5759L242.6 91.5752L242.105 90.706ZM218.489 90.6818L218.985 89.8136L218.489 90.6818ZM210.206 82.0128L209.325 82.4853L210.206 82.0128ZM210.206 54.5085L211.087 54.9811V54.9811L210.206 54.5085ZM218.489 45.8636L218.982 46.7336L218.985 46.7319L218.489 45.8636ZM242.105 45.8636L241.609 46.7319L241.614 46.7346L242.105 45.8636ZM250.412 54.5085L249.531 54.9811L249.532 54.984L250.412 54.5085ZM241.308 59.4347L240.389 59.8293L240.392 59.8345L241.308 59.4347ZM236.938 53.9773L236.388 54.8126L236.938 53.9773ZM223.705 53.9773L224.254 54.8126L223.705 53.9773ZM219.31 59.4347L218.393 59.0348L218.391 59.04L219.31 59.4347ZM219.31 77.1108L218.391 77.5055L218.393 77.5106L219.31 77.1108ZM223.705 82.5682L224.254 81.7328L223.705 82.5682ZM236.938 82.5682L236.388 81.7328L236.938 82.5682ZM241.308 77.1108L240.392 76.7109L240.389 76.7161L241.308 77.1108ZM252.479 68.2727C252.479 73.5411 251.48 77.9569 249.532 81.5615L251.292 82.5124C253.433 78.5506 254.479 73.7903 254.479 68.2727H252.479ZM249.531 81.5644C247.585 85.1925 244.946 87.9396 241.611 89.8367L242.6 91.5752C246.283 89.4799 249.182 86.4477 251.293 82.5095L249.531 81.5644ZM241.612 89.836C238.282 91.7236 234.526 92.6761 230.321 92.6761V94.6761C234.841 94.6761 238.942 93.6486 242.598 91.5759L241.612 89.836ZM230.321 92.6761C226.084 92.6761 222.313 91.7156 218.985 89.8136L217.993 91.5501C221.651 93.6405 225.769 94.6761 230.321 94.6761V92.6761ZM218.985 89.8136C215.665 87.9168 213.033 85.1695 211.087 81.5402L209.325 82.4853C211.436 86.4224 214.325 89.4544 217.993 91.5501L218.985 89.8136ZM211.087 81.5402C209.154 77.9346 208.163 73.5256 208.163 68.2727H206.163C206.163 73.7736 207.201 78.5247 209.325 82.4853L211.087 81.5402ZM208.163 68.2727C208.163 63.0032 209.154 58.5863 211.087 54.9811L209.325 54.036C207.201 57.997 206.163 62.7563 206.163 68.2727H208.163ZM211.087 54.9811C213.033 51.3524 215.664 48.6141 218.982 46.7336L217.996 44.9937C214.326 47.0734 211.436 50.0984 209.325 54.036L211.087 54.9811ZM218.985 46.7319C222.313 44.8298 226.084 43.8693 230.321 43.8693V41.8693C225.769 41.8693 221.651 42.905 217.993 44.9954L218.985 46.7319ZM230.321 43.8693C234.525 43.8693 238.279 44.8292 241.609 46.7319L242.601 44.9954C238.944 42.9056 234.843 41.8693 230.321 41.8693V43.8693ZM241.614 46.7346C244.947 48.6154 247.586 51.3536 249.531 54.9811L251.293 54.036C249.181 50.0972 246.282 47.0721 242.597 44.9927L241.614 46.7346ZM249.532 54.984C251.48 58.5885 252.479 63.0043 252.479 68.2727H254.479C254.479 62.7551 253.433 57.9948 251.292 54.0331L249.532 54.984ZM243.878 68.2727C243.878 64.6854 243.341 61.5943 242.225 59.0348L240.392 59.8345C241.368 62.0724 241.878 64.8733 241.878 68.2727H243.878ZM242.227 59.04C241.132 56.4906 239.559 54.5053 237.487 53.1419L236.388 54.8126C238.083 55.9284 239.424 57.5814 240.389 59.8293L242.227 59.04ZM237.487 53.1419C235.421 51.7822 233.019 51.1179 230.321 51.1179V53.1179C232.678 53.1179 234.687 53.6931 236.388 54.8126L237.487 53.1419ZM230.321 51.1179C227.623 51.1179 225.221 51.7822 223.155 53.1419L224.254 54.8126C225.955 53.6931 227.965 53.1179 230.321 53.1179V51.1179ZM223.155 53.1419C221.085 54.5043 219.504 56.4877 218.393 59.0348L220.226 59.8345C221.208 57.5843 222.557 55.9294 224.254 54.8126L223.155 53.1419ZM218.391 59.04C217.292 61.5979 216.764 64.6871 216.764 68.2727H218.764C218.764 64.8717 219.267 62.0688 220.228 59.8293L218.391 59.04ZM216.764 68.2727C216.764 71.8584 217.292 74.9476 218.391 77.5055L220.228 76.7161C219.267 74.4766 218.764 71.6738 218.764 68.2727H216.764ZM218.393 77.5106C219.504 80.0578 221.085 82.0411 223.155 83.4035L224.254 81.7328C222.557 80.6161 221.208 78.9612 220.226 76.7109L218.393 77.5106ZM223.155 83.4035C225.221 84.7632 227.623 85.4276 230.321 85.4276V83.4276C227.965 83.4276 225.955 82.8523 224.254 81.7328L223.155 83.4035ZM230.321 85.4276C233.019 85.4276 235.421 84.7632 237.487 83.4035L236.388 81.7328C234.687 82.8523 232.678 83.4276 230.321 83.4276V85.4276ZM237.487 83.4035C239.559 82.0402 241.132 80.0549 242.227 77.5055L240.389 76.7161C239.424 78.964 238.083 80.617 236.388 81.7328L237.487 83.4035ZM242.225 77.5106C243.341 74.9512 243.878 71.86 243.878 68.2727H241.878C241.878 71.6722 241.368 74.4731 240.392 76.7109L242.225 77.5106ZM261.224 43.5455V42.5455H260.224V43.5455H261.224ZM274.119 43.5455L275.044 43.1662L274.79 42.5455H274.119V43.5455ZM287.738 76.7727L286.813 77.152L287.067 77.7727H287.738V76.7727ZM288.318 76.7727V77.7727H288.989L289.243 77.152L288.318 76.7727ZM301.937 43.5455V42.5455H301.266L301.012 43.1662L301.937 43.5455ZM314.832 43.5455H315.832V42.5455H314.832V43.5455ZM314.832 93V94H315.832V93H314.832ZM304.69 93H303.69V94H304.69V93ZM304.69 60.8111H305.69V59.8111H304.69V60.8111ZM304.279 60.8111V59.8111H303.603L303.351 60.4392L304.279 60.8111ZM291.481 92.7585V93.7585H292.158L292.409 93.1304L291.481 92.7585ZM284.575 92.7585L283.646 93.1292L283.897 93.7585H284.575V92.7585ZM271.777 60.6903L272.705 60.3197L272.454 59.6903H271.777V60.6903ZM271.366 60.6903V59.6903H270.366V60.6903H271.366ZM271.366 93V94H272.366V93H271.366ZM261.224 93H260.224V94H261.224V93ZM261.224 44.5455H274.119V42.5455H261.224V44.5455ZM273.194 43.9247L286.813 77.152L288.664 76.3935L275.044 43.1662L273.194 43.9247ZM287.738 77.7727H288.318V75.7727H287.738V77.7727ZM289.243 77.152L302.862 43.9247L301.012 43.1662L287.393 76.3935L289.243 77.152ZM301.937 44.5455H314.832V42.5455H301.937V44.5455ZM313.832 43.5455V93H315.832V43.5455H313.832ZM314.832 92H304.69V94H314.832V92ZM305.69 93V60.8111H303.69V93H305.69ZM304.69 59.8111H304.279V61.8111H304.69V59.8111ZM303.351 60.4392L290.553 92.3867L292.409 93.1304L305.208 61.183L303.351 60.4392ZM291.481 91.7585H284.575V93.7585H291.481V91.7585ZM285.504 92.3879L272.705 60.3197L270.848 61.061L283.646 93.1292L285.504 92.3879ZM271.777 59.6903H271.366V61.6903H271.777V59.6903ZM270.366 60.6903V93H272.366V60.6903H270.366ZM271.366 92H261.224V94H271.366V92ZM262.224 93V43.5455H260.224V93H262.224ZM323.447 93H322.447V94H323.447V93ZM323.447 43.5455V42.5455H322.447V43.5455H323.447ZM356.771 43.5455H357.771V42.5455H356.771V43.5455ZM356.771 52.1662V53.1662H357.771V52.1662H356.771ZM333.903 52.1662V51.1662H332.903V52.1662H333.903ZM333.903 63.9503H332.903V64.9503H333.903V63.9503ZM355.056 63.9503H356.056V62.9503H355.056V63.9503ZM355.056 72.571V73.571H356.056V72.571H355.056ZM333.903 72.571V71.571H332.903V72.571H333.903ZM333.903 84.3793H332.903V85.3793H333.903V84.3793ZM356.867 84.3793H357.867V83.3793H356.867V84.3793ZM356.867 93V94H357.867V93H356.867ZM324.447 93V43.5455H322.447V93H324.447ZM323.447 44.5455H356.771V42.5455H323.447V44.5455ZM355.771 43.5455V52.1662H357.771V43.5455H355.771ZM356.771 51.1662H333.903V53.1662H356.771V51.1662ZM332.903 52.1662V63.9503H334.903V52.1662H332.903ZM333.903 64.9503H355.056V62.9503H333.903V64.9503ZM354.056 63.9503V72.571H356.056V63.9503H354.056ZM355.056 71.571H333.903V73.571H355.056V71.571ZM332.903 72.571V84.3793H334.903V72.571H332.903ZM333.903 85.3793H356.867V83.3793H333.903V85.3793ZM355.867 84.3793V93H357.867V84.3793H355.867ZM356.867 92H323.447V94H356.867V92ZM407.65 57.7685L406.655 57.8672L406.744 58.7685H407.65V57.7685ZM394.876 52.3352L395.245 53.2646L395.256 53.2602L394.876 52.3352ZM392.171 54.2912L391.371 53.6911L391.364 53.7012L392.171 54.2912ZM391.254 57.1406L392.253 57.177L392.254 57.1588V57.1406H391.254ZM391.809 59.4588L390.955 59.9794L390.96 59.9869L390.964 59.9944L391.809 59.4588ZM393.523 61.1733L392.969 62.0053L392.975 62.0097L392.982 62.0139L393.523 61.1733ZM396.035 62.4048L395.685 63.3418L395.692 63.3444L395.699 63.3469L396.035 62.4048ZM399.077 63.2741L399.31 62.3016L399.303 62.2999L399.296 62.2983L399.077 63.2741ZM403.521 64.3366L403.288 65.3092L403.295 65.3109L403.302 65.3125L403.521 64.3366ZM409.461 66.2685L409.053 67.1816L409.461 66.2685ZM414.146 69.2386L414.811 68.4917L414.146 69.2386ZM417.212 73.392L416.302 73.8059L416.305 73.8134L417.212 73.392ZM418.347 78.8736L419.347 78.8789L419.347 78.8658L418.347 78.8736ZM416.029 86.7457L415.205 86.1787L415.205 86.18L416.029 86.7457ZM409.461 91.8892L409.851 92.81L409.854 92.8089L409.461 91.8892ZM388.718 91.8651L388.335 92.7886L388.336 92.7893L388.718 91.8651ZM381.812 86.4318L380.985 86.9941L380.989 87.0005L381.812 86.4318ZM379.228 77.473V76.473H378.205L378.228 77.4956L379.228 77.473ZM389.346 77.473L390.344 77.4052L390.28 76.473H389.346V77.473ZM390.771 81.6264L389.972 82.2283L389.977 82.2348L389.982 82.2412L390.771 81.6264ZM394.175 84.1136L393.806 85.0429L393.819 85.0478L394.175 84.1136ZM403.641 84.1619L403.278 83.2303L403.274 83.2319L403.641 84.1619ZM406.708 82.0128L407.493 82.6324L406.708 82.0128ZM406.805 76.0483L406.043 76.6965L406.051 76.7057L406.805 76.0483ZM403.955 74.1165L403.561 75.0356L403.566 75.0374L403.955 74.1165ZM399.391 72.6676L399.148 73.6375L399.157 73.6398L399.391 72.6676ZM394.006 71.3153L394.25 70.3454L394.243 70.3437L394.006 71.3153ZM384.13 66.5582L383.464 67.304L384.13 66.5582ZM380.532 57.8409L381.532 57.8453L381.532 57.8355L380.532 57.8409ZM382.923 49.9929L382.114 49.4051L382.111 49.4089L382.923 49.9929ZM408.881 44.7528L408.464 45.6617L408.466 45.6627L408.881 44.7528ZM415.305 49.9929L414.479 50.5572V50.5572L415.305 49.9929ZM417.671 57.7685V58.7685H418.688L418.671 57.7521L417.671 57.7685ZM408.645 57.6698C408.426 55.4641 407.467 53.6838 405.756 52.4234L404.57 54.034C405.788 54.9308 406.487 56.177 406.655 57.8672L408.645 57.6698ZM405.756 52.4234C404.064 51.1782 401.843 50.6108 399.198 50.6108V52.6108C401.576 52.6108 403.331 53.122 404.57 54.034L405.756 52.4234ZM399.198 50.6108C397.403 50.6108 395.825 50.8639 394.496 51.4103L395.256 53.2602C396.277 52.8406 397.58 52.6108 399.198 52.6108V50.6108ZM394.507 51.4059C393.196 51.9265 392.131 52.6786 391.371 53.6912L392.971 54.8912C393.467 54.2295 394.205 53.6777 395.245 53.2646L394.507 51.4059ZM391.364 53.7012C390.624 54.7141 390.254 55.8716 390.254 57.1406H392.254C392.254 56.2846 392.495 55.5426 392.979 54.8812L391.364 53.7012ZM390.254 57.1043C390.216 58.1562 390.436 59.1285 390.955 59.9794L392.663 58.9382C392.377 58.469 392.227 57.8959 392.253 57.177L390.254 57.1043ZM390.964 59.9944C391.466 60.7852 392.141 61.4538 392.969 62.0053L394.078 60.3412C393.457 59.9269 392.989 59.4525 392.653 58.9233L390.964 59.9944ZM392.982 62.0139C393.776 62.5258 394.68 62.9668 395.685 63.3418L396.384 61.4678C395.49 61.1345 394.72 60.7545 394.065 60.3327L392.982 62.0139ZM395.699 63.3469C396.691 63.6998 397.744 64.0005 398.859 64.25L399.296 62.2983C398.253 62.0649 397.278 61.786 396.37 61.4627L395.699 63.3469ZM398.845 64.2467L403.288 65.3092L403.753 63.3641L399.31 62.3016L398.845 64.2467ZM403.302 65.3125C405.402 65.7826 407.318 66.4068 409.053 67.1816L409.869 65.3553C407.998 64.5203 405.954 63.8566 403.739 63.3608L403.302 65.3125ZM409.053 67.1816C410.773 67.9495 412.246 68.8861 413.481 69.9855L414.811 68.4917C413.405 67.2408 411.755 66.1973 409.869 65.3553L409.053 67.1816ZM413.481 69.9855C414.698 71.0689 415.636 72.3403 416.302 73.8058L418.123 72.9782C417.34 71.2563 416.234 69.7587 414.811 68.4917L413.481 69.9855ZM416.305 73.8134C416.976 75.2571 417.332 76.9393 417.347 78.8814L419.347 78.8658C419.33 76.6867 418.93 74.7145 418.119 72.9707L416.305 73.8134ZM417.347 78.8683C417.332 81.7195 416.607 84.1422 415.205 86.1787L416.853 87.3128C418.51 84.9061 419.33 82.0807 419.347 78.8789L417.347 78.8683ZM415.205 86.18C413.815 88.2045 411.789 89.8081 409.068 90.9695L409.854 92.8089C412.864 91.5234 415.216 89.698 416.854 87.3115L415.205 86.18ZM409.071 90.9685C406.376 92.1104 403.079 92.7003 399.15 92.7003V94.7003C403.27 94.7003 406.847 94.0828 409.851 92.81L409.071 90.9685ZM399.15 92.7003C395.257 92.7003 391.915 92.1036 389.1 90.9408L388.336 92.7893C391.445 94.0735 395.058 94.7003 399.15 94.7003V92.7003ZM389.102 90.9415C386.316 89.7845 384.173 88.0891 382.634 85.8632L380.989 87.0005C382.767 89.5719 385.228 91.4986 388.335 92.7886L389.102 90.9415ZM382.639 85.8695C381.127 83.646 380.305 80.8578 380.228 77.4504L378.228 77.4956C378.312 81.2037 379.213 84.3881 380.985 86.9941L382.639 85.8695ZM379.228 78.473H389.346V76.473H379.228V78.473ZM388.348 77.5408C388.471 79.3543 388.997 80.9345 389.972 82.2283L391.569 81.0246C390.87 80.0967 390.446 78.908 390.344 77.4052L388.348 77.5408ZM389.982 82.2412C390.955 83.4896 392.241 84.4203 393.806 85.0428L394.545 83.1844C393.277 82.68 392.293 81.9526 391.559 81.0117L389.982 82.2412ZM393.819 85.0478C395.383 85.6456 397.125 85.9347 399.029 85.9347V83.9347C397.327 83.9347 395.833 83.6764 394.532 83.1795L393.819 85.0478ZM399.029 85.9347C400.894 85.9347 402.561 85.6637 404.009 85.092L403.274 83.2319C402.113 83.6904 400.706 83.9347 399.029 83.9347V85.9347ZM404.005 85.0935C405.456 84.5274 406.637 83.7165 407.493 82.6324L405.923 81.3931C405.33 82.1443 404.467 82.7662 403.278 83.2304L404.005 85.0935ZM407.493 82.6324C408.36 81.5347 408.795 80.261 408.795 78.8494H406.795C406.795 79.8205 406.505 80.6556 405.923 81.3931L407.493 82.6324ZM408.795 78.8494C408.795 77.5245 408.394 76.3495 407.558 75.3909L406.051 76.7057C406.535 77.2604 406.795 77.9527 406.795 78.8494H408.795ZM407.566 75.4002C406.791 74.4891 405.694 73.7661 404.345 73.1955L403.566 75.0374C404.728 75.5294 405.531 76.0942 406.043 76.6964L407.566 75.4002ZM404.349 73.1973C403.043 72.6375 401.465 72.1388 399.626 71.6955L399.157 73.6398C400.924 74.0658 402.388 74.533 403.561 75.0356L404.349 73.1973ZM399.635 71.6977L394.25 70.3455L393.763 72.2852L399.148 73.6375L399.635 71.6977ZM394.243 70.3437C390.183 69.3561 387.055 67.8304 384.796 65.8125L383.464 67.304C386.034 69.6005 389.491 71.2461 393.77 72.287L394.243 70.3437ZM384.796 65.8125C382.624 63.8717 381.517 61.2543 381.532 57.8453L379.532 57.8365C379.515 61.7362 380.807 64.9304 383.464 67.304L384.796 65.8125ZM381.532 57.8355C381.517 55.0334 382.259 52.628 383.734 50.5769L382.111 49.4089C380.367 51.8332 379.515 54.6598 379.532 57.8463L381.532 57.8355ZM383.732 50.5807C385.242 48.5021 387.325 46.8602 390.017 45.6671L389.206 43.8386C386.232 45.1569 383.855 47.0084 382.114 49.4051L383.732 50.5807ZM390.017 45.6671C392.703 44.4764 395.781 43.8693 399.271 43.8693V41.8693C395.548 41.8693 392.186 42.5179 389.206 43.8386L390.017 45.6671ZM399.271 43.8693C402.828 43.8693 405.884 44.4777 408.464 45.6617L409.298 43.8439C406.405 42.5166 403.054 41.8693 399.271 41.8693V43.8693ZM408.466 45.6627C411.073 46.8518 413.064 48.4869 414.479 50.5572L416.13 49.4286C414.486 47.0235 412.195 45.1653 409.296 43.843L408.466 45.6627ZM414.479 50.5572C415.888 52.6191 416.626 55.0168 416.671 57.7849L418.671 57.7521C418.62 54.6281 417.78 51.842 416.13 49.4286L414.479 50.5572ZM417.671 56.7685H407.65V58.7685H417.671V56.7685ZM436.512 93L435.551 93.2751L435.758 94H436.512V93ZM422.362 43.5455V42.5455H421.036L421.4 43.8205L422.362 43.5455ZM433.784 43.5455L434.757 43.3137L434.573 42.5455H433.784V43.5455ZM441.97 77.9077L440.997 78.1394L441.18 78.9077H441.97V77.9077ZM442.38 77.9077V78.9077H443.151L443.347 78.1619L442.38 77.9077ZM451.412 43.5455V42.5455H450.64L450.444 43.2913L451.412 43.5455ZM461.191 43.5455L462.159 43.2924L461.963 42.5455H461.191V43.5455ZM470.199 77.9801L469.231 78.2332L469.426 78.9801H470.199V77.9801ZM470.633 77.9801V78.9801H471.423L471.606 78.2114L470.633 77.9801ZM478.819 43.5455V42.5455H478.029L477.846 43.3142L478.819 43.5455ZM490.241 43.5455L491.203 43.8205L491.567 42.5455H490.241V43.5455ZM476.091 93V94H476.845L477.052 93.2751L476.091 93ZM465.9 93L464.94 93.2796L465.15 94H465.9V93ZM456.483 60.6662L457.443 60.3866L457.233 59.6662H456.483V60.6662ZM456.096 60.6662V59.6662H455.345L455.136 60.3872L456.096 60.6662ZM446.703 93V94H447.454L447.663 93.279L446.703 93ZM437.474 92.7249L423.323 43.2704L421.4 43.8205L435.551 93.2751L437.474 92.7249ZM422.362 44.5455H433.784V42.5455H422.362V44.5455ZM432.811 43.7772L440.997 78.1394L442.943 77.6759L434.757 43.3137L432.811 43.7772ZM441.97 78.9077H442.38V76.9077H441.97V78.9077ZM443.347 78.1619L452.379 43.7996L450.444 43.2913L441.413 77.6535L443.347 78.1619ZM451.412 44.5455H461.191V42.5455H451.412V44.5455ZM460.224 43.7985L469.231 78.2332L471.166 77.7271L462.159 43.2924L460.224 43.7985ZM470.199 78.9801H470.633V76.9801H470.199V78.9801ZM471.606 78.2114L479.792 43.7767L477.846 43.3142L469.66 77.7488L471.606 78.2114ZM478.819 44.5455H490.241V42.5455H478.819V44.5455ZM489.28 43.2704L475.129 92.7249L477.052 93.2751L491.203 43.8205L489.28 43.2704ZM476.091 92H465.9V94H476.091V92ZM466.86 92.7204L457.443 60.3866L455.522 60.9458L464.94 93.2796L466.86 92.7204ZM456.483 59.6662H456.096V61.6662H456.483V59.6662ZM455.136 60.3872L445.742 92.721L447.663 93.279L457.057 60.9452L455.136 60.3872ZM446.703 92H436.512V94H446.703V92ZM495.837 93H494.837V94H495.837V93ZM495.837 43.5455V42.5455H494.837V43.5455H495.837ZM529.161 43.5455H530.161V42.5455H529.161V43.5455ZM529.161 52.1662V53.1662H530.161V52.1662H529.161ZM506.293 52.1662V51.1662H505.293V52.1662H506.293ZM506.293 63.9503H505.293V64.9503H506.293V63.9503ZM527.447 63.9503H528.447V62.9503H527.447V63.9503ZM527.447 72.571V73.571H528.447V72.571H527.447ZM506.293 72.571V71.571H505.293V72.571H506.293ZM506.293 84.3793H505.293V85.3793H506.293V84.3793ZM529.258 84.3793H530.258V83.3793H529.258V84.3793ZM529.258 93V94H530.258V93H529.258ZM496.837 93V43.5455H494.837V93H496.837ZM495.837 44.5455H529.161V42.5455H495.837V44.5455ZM528.161 43.5455V52.1662H530.161V43.5455H528.161ZM529.161 51.1662H506.293V53.1662H529.161V51.1662ZM505.293 52.1662V63.9503H507.293V52.1662H505.293ZM506.293 64.9503H527.447V62.9503H506.293V64.9503ZM526.447 63.9503V72.571H528.447V63.9503H526.447ZM527.447 71.571H506.293V73.571H527.447V71.571ZM505.293 72.571V84.3793H507.293V72.571H505.293ZM506.293 85.3793H529.258V83.3793H506.293V85.3793ZM528.258 84.3793V93H530.258V84.3793H528.258ZM529.258 92H495.837V94H529.258V92ZM537.474 93H536.474V94H537.474V93ZM537.474 43.5455V42.5455H536.474V43.5455H537.474ZM570.798 43.5455H571.798V42.5455H570.798V43.5455ZM570.798 52.1662V53.1662H571.798V52.1662H570.798ZM547.93 52.1662V51.1662H546.93V52.1662H547.93ZM547.93 63.9503H546.93V64.9503H547.93V63.9503ZM569.083 63.9503H570.083V62.9503H569.083V63.9503ZM569.083 72.571V73.571H570.083V72.571H569.083ZM547.93 72.571V71.571H546.93V72.571H547.93ZM547.93 84.3793H546.93V85.3793H547.93V84.3793ZM570.895 84.3793H571.895V83.3793H570.895V84.3793ZM570.895 93V94H571.895V93H570.895ZM538.474 93V43.5455H536.474V93H538.474ZM537.474 44.5455H570.798V42.5455H537.474V44.5455ZM569.798 43.5455V52.1662H571.798V43.5455H569.798ZM570.798 51.1662H547.93V53.1662H570.798V51.1662ZM546.93 52.1662V63.9503H548.93V52.1662H546.93ZM547.93 64.9503H569.083V62.9503H547.93V64.9503ZM568.083 63.9503V72.571H570.083V63.9503H568.083ZM569.083 71.571H547.93V73.571H569.083V71.571ZM546.93 72.571V84.3793H548.93V72.571H546.93ZM547.93 85.3793H570.895V83.3793H547.93V85.3793ZM569.895 84.3793V93H571.895V84.3793H569.895ZM570.895 92H537.474V94H570.895V92ZM577.227 52.1662H576.227V53.1662H577.227V52.1662ZM577.227 43.5455V42.5455H576.227V43.5455H577.227ZM617.844 43.5455H618.844V42.5455H617.844V43.5455ZM617.844 52.1662V53.1662H618.844V52.1662H617.844ZM602.703 52.1662V51.1662H601.703V52.1662H602.703ZM602.703 93V94H603.703V93H602.703ZM592.368 93H591.368V94H592.368V93ZM592.368 52.1662H593.368V51.1662H592.368V52.1662ZM578.227 52.1662V43.5455H576.227V52.1662H578.227ZM577.227 44.5455H617.844V42.5455H577.227V44.5455ZM616.844 43.5455V52.1662H618.844V43.5455H616.844ZM617.844 51.1662H602.703V53.1662H617.844V51.1662ZM601.703 52.1662V93H603.703V52.1662H601.703ZM602.703 92H592.368V94H602.703V92ZM593.368 93V52.1662H591.368V93H593.368ZM592.368 51.1662H577.227V53.1662H592.368V51.1662ZM640.271 93H639.271V94H640.271V93ZM640.271 43.5455V42.5455H639.271V43.5455H640.271ZM650.727 43.5455H651.727V42.5455H650.727V43.5455ZM650.727 63.9503H649.727V64.9503H650.727V63.9503ZM671.953 63.9503V64.9503H672.953V63.9503H671.953ZM671.953 43.5455V42.5455H670.953V43.5455H671.953ZM682.385 43.5455H683.385V42.5455H682.385V43.5455ZM682.385 93V94H683.385V93H682.385ZM671.953 93H670.953V94H671.953V93ZM671.953 72.571H672.953V71.571H671.953V72.571ZM650.727 72.571V71.571H649.727V72.571H650.727ZM650.727 93V94H651.727V93H650.727ZM641.271 93V43.5455H639.271V93H641.271ZM640.271 44.5455H650.727V42.5455H640.271V44.5455ZM649.727 43.5455V63.9503H651.727V43.5455H649.727ZM650.727 64.9503H671.953V62.9503H650.727V64.9503ZM672.953 63.9503V43.5455H670.953V63.9503H672.953ZM671.953 44.5455H682.385V42.5455H671.953V44.5455ZM681.385 43.5455V93H683.385V43.5455H681.385ZM682.385 92H671.953V94H682.385V92ZM672.953 93V72.571H670.953V93H672.953ZM671.953 71.571H650.727V73.571H671.953V71.571ZM649.727 72.571V93H651.727V72.571H649.727ZM650.727 92H640.271V94H650.727V92ZM733.385 82.0369L732.505 81.5615L732.503 81.5644L733.385 82.0369ZM725.078 90.706L725.571 91.5759L725.572 91.5752L725.078 90.706ZM701.461 90.6818L701.957 89.8136L701.461 90.6818ZM693.179 82.0128L692.297 82.4853L693.179 82.0128ZM693.179 54.5085L694.06 54.9811V54.9811L693.179 54.5085ZM701.461 45.8636L701.954 46.7336L701.957 46.7319L701.461 45.8636ZM725.078 45.8636L724.582 46.7319L724.586 46.7346L725.078 45.8636ZM733.385 54.5085L732.503 54.9811L732.505 54.984L733.385 54.5085ZM724.281 59.4347L723.362 59.8293L723.364 59.8345L724.281 59.4347ZM719.91 53.9773L719.36 54.8126L719.91 53.9773ZM706.677 53.9773L707.227 54.8126L706.677 53.9773ZM702.282 59.4347L701.366 59.0348L701.363 59.04L702.282 59.4347ZM702.282 77.1108L701.363 77.5055L701.366 77.5106L702.282 77.1108ZM706.677 82.5682L707.227 81.7328L706.677 82.5682ZM719.91 82.5682L719.36 81.7328L719.91 82.5682ZM724.281 77.1108L723.364 76.7109L723.362 76.7161L724.281 77.1108ZM735.451 68.2727C735.451 73.5411 734.453 77.9569 732.505 81.5615L734.264 82.5124C736.405 78.5506 737.451 73.7903 737.451 68.2727H735.451ZM732.503 81.5644C730.558 85.1925 727.919 87.9396 724.583 89.8367L725.572 91.5752C729.256 89.4799 732.154 86.4477 734.266 82.5095L732.503 81.5644ZM724.585 89.836C721.255 91.7236 717.499 92.6761 713.294 92.6761V94.6761C717.814 94.6761 721.914 93.6486 725.571 91.5759L724.585 89.836ZM713.294 92.6761C709.056 92.6761 705.286 91.7156 701.957 89.8136L700.965 91.5501C704.623 93.6405 708.741 94.6761 713.294 94.6761V92.6761ZM701.957 89.8136C698.638 87.9168 696.006 85.1695 694.06 81.5402L692.297 82.4853C694.408 86.4224 697.298 89.4544 700.965 91.5501L701.957 89.8136ZM694.06 81.5402C692.127 77.9346 691.136 73.5256 691.136 68.2727H689.136C689.136 73.7736 690.174 78.5247 692.297 82.4853L694.06 81.5402ZM691.136 68.2727C691.136 63.0032 692.127 58.5863 694.06 54.9811L692.297 54.036C690.174 57.997 689.136 62.7563 689.136 68.2727H691.136ZM694.06 54.9811C696.005 51.3524 698.637 48.6141 701.954 46.7336L700.968 44.9937C697.299 47.0734 694.409 50.0984 692.297 54.036L694.06 54.9811ZM701.957 46.7319C705.286 44.8298 709.056 43.8693 713.294 43.8693V41.8693C708.741 41.8693 704.623 42.905 700.965 44.9954L701.957 46.7319ZM713.294 43.8693C717.497 43.8693 721.252 44.8292 724.582 46.7319L725.574 44.9954C721.917 42.9056 717.815 41.8693 713.294 41.8693V43.8693ZM724.586 46.7346C727.92 48.6154 730.558 51.3536 732.503 54.9811L734.266 54.036C732.154 50.0972 729.255 47.0721 725.569 44.9927L724.586 46.7346ZM732.505 54.984C734.453 58.5885 735.451 63.0043 735.451 68.2727H737.451C737.451 62.7551 736.405 57.9948 734.264 54.0331L732.505 54.984ZM726.851 68.2727C726.851 64.6854 726.314 61.5943 725.197 59.0348L723.364 59.8345C724.341 62.0724 724.851 64.8733 724.851 68.2727H726.851ZM725.2 59.04C724.105 56.4906 722.531 54.5053 720.46 53.1419L719.36 54.8126C721.056 55.9284 722.397 57.5814 723.362 59.8293L725.2 59.04ZM720.46 53.1419C718.394 51.7822 715.992 51.1179 713.294 51.1179V53.1179C715.65 53.1179 717.659 53.6931 719.36 54.8126L720.46 53.1419ZM713.294 51.1179C710.595 51.1179 708.193 51.7822 706.127 53.1419L707.227 54.8126C708.928 53.6931 710.937 53.1179 713.294 53.1179V51.1179ZM706.127 53.1419C704.057 54.5043 702.477 56.4877 701.366 59.0348L703.199 59.8345C704.181 57.5843 705.53 55.9294 707.227 54.8126L706.127 53.1419ZM701.363 59.04C700.265 61.5979 699.737 64.6871 699.737 68.2727H701.737C701.737 64.8717 702.239 62.0688 703.201 59.8293L701.363 59.04ZM699.737 68.2727C699.737 71.8584 700.265 74.9476 701.363 77.5055L703.201 76.7161C702.239 74.4766 701.737 71.6738 701.737 68.2727H699.737ZM701.366 77.5106C702.477 80.0578 704.057 82.0411 706.127 83.4035L707.227 81.7328C705.53 80.6161 704.181 78.9612 703.199 76.7109L701.366 77.5106ZM706.127 83.4035C708.193 84.7632 710.595 85.4276 713.294 85.4276V83.4276C710.937 83.4276 708.928 82.8523 707.227 81.7328L706.127 83.4035ZM713.294 85.4276C715.992 85.4276 718.394 84.7632 720.46 83.4035L719.36 81.7328C717.659 82.8523 715.65 83.4276 713.294 83.4276V85.4276ZM720.46 83.4035C722.531 82.0402 724.105 80.0549 725.2 77.5055L723.362 76.7161C722.397 78.964 721.056 80.617 719.36 81.7328L720.46 83.4035ZM725.197 77.5106C726.314 74.9512 726.851 71.86 726.851 68.2727H724.851C724.851 71.6722 724.341 74.4731 723.364 76.7109L725.197 77.5106ZM744.197 43.5455V42.5455H743.197V43.5455H744.197ZM757.092 43.5455L758.017 43.1662L757.762 42.5455H757.092V43.5455ZM770.711 76.7727L769.786 77.152L770.04 77.7727H770.711V76.7727ZM771.29 76.7727V77.7727H771.961L772.216 77.152L771.29 76.7727ZM784.91 43.5455V42.5455H784.239L783.984 43.1662L784.91 43.5455ZM797.805 43.5455H798.805V42.5455H797.805V43.5455ZM797.805 93V94H798.805V93H797.805ZM787.663 93H786.663V94H787.663V93ZM787.663 60.8111H788.663V59.8111H787.663V60.8111ZM787.252 60.8111V59.8111H786.576L786.324 60.4392L787.252 60.8111ZM774.454 92.7585V93.7585H775.13L775.382 93.1304L774.454 92.7585ZM767.548 92.7585L766.619 93.1292L766.87 93.7585H767.548V92.7585ZM754.749 60.6903L755.678 60.3197L755.427 59.6903H754.749V60.6903ZM754.339 60.6903V59.6903H753.339V60.6903H754.339ZM754.339 93V94H755.339V93H754.339ZM744.197 93H743.197V94H744.197V93ZM744.197 44.5455H757.092V42.5455H744.197V44.5455ZM756.166 43.9247L769.786 77.152L771.636 76.3935L758.017 43.1662L756.166 43.9247ZM770.711 77.7727H771.29V75.7727H770.711V77.7727ZM772.216 77.152L785.835 43.9247L783.984 43.1662L770.365 76.3935L772.216 77.152ZM784.91 44.5455H797.805V42.5455H784.91V44.5455ZM796.805 43.5455V93H798.805V43.5455H796.805ZM797.805 92H787.663V94H797.805V92ZM788.663 93V60.8111H786.663V93H788.663ZM787.663 59.8111H787.252V61.8111H787.663V59.8111ZM786.324 60.4392L773.526 92.3867L775.382 93.1304L788.18 61.183L786.324 60.4392ZM774.454 91.7585H767.548V93.7585H774.454V91.7585ZM768.476 92.3879L755.678 60.3197L753.82 61.061L766.619 93.1292L768.476 92.3879ZM754.749 59.6903H754.339V61.6903H754.749V59.6903ZM753.339 60.6903V93H755.339V60.6903H753.339ZM754.339 92H744.197V94H754.339V92ZM745.197 93V43.5455H743.197V93H745.197ZM806.419 93H805.419V94H806.419V93ZM806.419 43.5455V42.5455H805.419V43.5455H806.419ZM839.743 43.5455H840.743V42.5455H839.743V43.5455ZM839.743 52.1662V53.1662H840.743V52.1662H839.743ZM816.875 52.1662V51.1662H815.875V52.1662H816.875ZM816.875 63.9503H815.875V64.9503H816.875V63.9503ZM838.029 63.9503H839.029V62.9503H838.029V63.9503ZM838.029 72.571V73.571H839.029V72.571H838.029ZM816.875 72.571V71.571H815.875V72.571H816.875ZM816.875 84.3793H815.875V85.3793H816.875V84.3793ZM839.84 84.3793H840.84V83.3793H839.84V84.3793ZM839.84 93V94H840.84V93H839.84ZM807.419 93V43.5455H805.419V93H807.419ZM806.419 44.5455H839.743V42.5455H806.419V44.5455ZM838.743 43.5455V52.1662H840.743V43.5455H838.743ZM839.743 51.1662H816.875V53.1662H839.743V51.1662ZM815.875 52.1662V63.9503H817.875V52.1662H815.875ZM816.875 64.9503H838.029V62.9503H816.875V64.9503ZM837.029 63.9503V72.571H839.029V63.9503H837.029ZM838.029 71.571H816.875V73.571H838.029V71.571ZM815.875 72.571V84.3793H817.875V72.571H815.875ZM816.875 85.3793H839.84V83.3793H816.875V85.3793ZM838.84 84.3793V93H840.84V84.3793H838.84ZM839.84 92H806.419V94H839.84V92Z" fill="white" mask="url(#path-1-outside-1_27_91)"/>
<path d="M8.67245 30.7887L61 0.57735L113.328 30.7887V91.2113L61 121.423L8.67245 91.2113V30.7887Z" fill="#163A9C" stroke="white"/>
<path d="M39.084 27.5471L87.1709 38.2473L47.8807 59.3701L39.084 27.5471Z" fill="#163A9C" stroke="white"/>
<path d="M48.5 96.5487V60.1053L87.9 38.8872V73.3475L48.5 96.5487Z" fill="#163A9C" stroke="white"/>
<path d="M38.5009 61.3764L38.9207 29.9874L47.5 59.185V93.757L38.5009 61.3764Z" fill="white" stroke="white"/>
</svg>
